<svg xmlns="http://www.w3.org/2000/svg" viewBox="0 0 200 150" width="200" height="150">
  <rect width="200" height="150" fill="#f8fafc" rx="8"/>
  <rect x="10" y="15" width="180" height="120" fill="#ffffff" stroke="#e2e8f0" stroke-width="1" rx="6"/>

  <!-- Header strip -->
  <rect x="10" y="15" width="180" height="28" fill="#1D2475" rx="6"/>
  <rect x="10" y="36" width="180" height="7" fill="#1D2475"/>
  <text x="18" y="30" font-family="sans-serif" font-size="9" font-weight="700" fill="#F26522">BRAND</text>
  <text x="48" y="30" font-family="sans-serif" font-size="9" font-weight="700" fill="#ffffff">Filters:</text>
  <text x="18" y="39" font-family="sans-serif" font-size="5.5" fill="#cbd5e1">Top sellers and special offer</text>

  <!-- Product card 1 -->
  <rect x="18" y="50" width="80" height="60" fill="#ffffff" stroke="#e2e8f0" rx="3"/>
  <rect x="22" y="54" width="72" height="9" fill="#1D2475" rx="2"/>
  <text x="58" y="60" text-anchor="middle" font-family="sans-serif" font-size="5.5" font-weight="700" fill="#ffffff">SFA1052SET</text>
  <rect x="24" y="67" width="18" height="18" fill="#e2e8f0" rx="1"/>
  <rect x="46" y="68" width="46" height="2.5" fill="#94a3b8"/>
  <rect x="46" y="72" width="40" height="2.5" fill="#94a3b8"/>
  <rect x="46" y="76" width="35" height="2.5" fill="#cbd5e1"/>
  <line x1="22" y1="90" x2="94" y2="90" stroke="#e2e8f0"/>
  <rect x="22" y="93" width="15" height="2" fill="#94a3b8"/>
  <rect x="22" y="97" width="20" height="2" fill="#94a3b8"/>
  <rect x="22" y="101" width="18" height="2.5" fill="#94a3b8"/>
  <rect x="62" y="98" width="30" height="3.5" fill="#1D2475"/>
  <rect x="65" y="103" width="27" height="2.5" fill="#1D2475"/>

  <!-- Product card 2 (SPECIAL) -->
  <rect x="102" y="50" width="80" height="60" fill="#ffffff" stroke="#e2e8f0" rx="3"/>
  <rect x="148" y="48" width="32" height="6" fill="#dc2626" rx="1"/>
  <text x="164" y="52.7" text-anchor="middle" font-family="sans-serif" font-size="4" font-weight="700" fill="#ffffff">SPECIAL</text>
  <rect x="106" y="54" width="72" height="9" fill="#1D2475" rx="2"/>
  <text x="142" y="60" text-anchor="middle" font-family="sans-serif" font-size="5.5" font-weight="700" fill="#ffffff">SFA8043P</text>
  <rect x="108" y="67" width="18" height="18" fill="#86efac" rx="1"/>
  <rect x="130" y="68" width="46" height="2.5" fill="#94a3b8"/>
  <rect x="130" y="72" width="40" height="2.5" fill="#94a3b8"/>
  <rect x="130" y="76" width="35" height="2.5" fill="#cbd5e1"/>
  <line x1="106" y1="90" x2="178" y2="90" stroke="#e2e8f0"/>
  <rect x="106" y="93" width="15" height="2" fill="#94a3b8"/>
  <rect x="106" y="97" width="20" height="2" fill="#94a3b8"/>
  <rect x="106" y="101" width="18" height="2.5" fill="#94a3b8"/>
  <rect x="146" y="98" width="30" height="3.5" fill="#dc2626"/>
  <rect x="149" y="103" width="27" height="2.5" fill="#dc2626"/>

  <!-- Footer -->
  <rect x="10" y="113" width="180" height="22" fill="#ffffff"/>
  <line x1="10" y1="113" x2="190" y2="113" stroke="#e2e8f0"/>
  <rect x="18" y="118" width="70" height="3" fill="#0f172a"/>
  <rect x="18" y="124" width="80" height="2.5" fill="#94a3b8"/>
  <rect x="120" y="118" width="62" height="13" fill="#1D2475" rx="2"/>
  <text x="151" y="127" text-anchor="middle" font-family="sans-serif" font-size="6" font-weight="700" fill="#ffffff">See all →</text>

  <!-- Close -->
  <circle cx="183" cy="22" r="4.5" fill="#000000" opacity="0.4"/>
  <text x="180.8" y="24.6" font-family="sans-serif" font-size="6.5" font-weight="700" fill="#ffffff">×</text>
</svg>
